<?xml version="1.0" encoding="UTF-8" standalone="no"?>
<!-- Created with Inkscape (http://www.inkscape.org/) -->

<svg
   xmlns:dc="http://purl.org/dc/elements/1.1/"
   xmlns:cc="http://creativecommons.org/ns#"
   xmlns:rdf="http://www.w3.org/1999/02/22-rdf-syntax-ns#"
   xmlns:svg="http://www.w3.org/2000/svg"
   xmlns="http://www.w3.org/2000/svg"
   xmlns:sodipodi="http://sodipodi.sourceforge.net/DTD/sodipodi-0.dtd"
   xmlns:inkscape="http://www.inkscape.org/namespaces/inkscape"
   width="210mm"
   height="297mm"
   viewBox="0 0 210 297"
   version="1.1"
   id="svg4926"
   inkscape:version="0.92.2 (5c3e80d, 2017-08-06)"
   sodipodi:docname="bootprint.svg">
  <defs
     id="defs4920" />
  <sodipodi:namedview
     id="base"
     pagecolor="#ffffff"
     bordercolor="#666666"
     borderopacity="1.0"
     inkscape:pageopacity="0.0"
     inkscape:pageshadow="2"
     inkscape:zoom="0.49497475"
     inkscape:cx="617.45468"
     inkscape:cy="345.71305"
     inkscape:document-units="mm"
     inkscape:current-layer="layer1"
     showgrid="false"
     inkscape:window-width="1600"
     inkscape:window-height="837"
     inkscape:window-x="-8"
     inkscape:window-y="-8"
     inkscape:window-maximized="1" />
  <metadata
     id="metadata4923">
    <rdf:RDF>
      <cc:Work
         rdf:about="">
        <dc:format>image/svg+xml</dc:format>
        <dc:type
           rdf:resource="http://purl.org/dc/dcmitype/StillImage" />
        <dc:title></dc:title>
      </cc:Work>
    </rdf:RDF>
  </metadata>
  <g
     inkscape:label="Layer 1"
     inkscape:groupmode="layer"
     id="layer1">
    <path
       d="m 124.17141,177.06382 1.68734,-2.82893 0.1263,-0.21201 -0.1263,-0.10549 -1.68734,-1.40934 -1.18603,-0.9906 -2.73615,-2.2853 -2.26942,-1.89547 -4.1148,-3.43747 -0.33549,0.2914 -3.58669,3.11502 -2.95522,2.56576 -2.06693,1.79564 -1.08831,2.78376 -0.0857,0.21979 0.0857,0.10265 3.15524,3.74721 2.95522,3.50979 3.58669,4.25979 3.0092,3.57399 1.44109,-2.41618 2.26942,-3.80611 2.73615,-4.58788 z"
       style="fill:#603813;fill-opacity:1;fill-rule:nonzero;stroke:none;stroke-width:0.35277775"
       id="path458"
       inkscape:connector-curvature="0" />
    <path
       d="m 124.17141,212.16006 1.68734,0.37959 0.77188,0.17427 1.34126,0.30092 2.01154,0.45226 0.41063,-6.2671 -2.42217,-0.42756 -1.34126,-0.23566 -0.77188,-0.13652 -1.68734,-0.29775 -1.18603,-0.20849 -2.73615,-0.48295 -2.26942,-0.3997 -2.18757,-0.38453 1.27705,5.9369 0.91052,0.20426 2.26942,0.51011 2.73615,0.61525 z"
       style="fill:#603813;fill-opacity:1;fill-rule:nonzero;stroke:none;stroke-width:0.35277775"
       id="path462"
       inkscape:connector-curvature="0" />
    <path
       d="m 126.63069,195.95606 0.92887,0.10936 c 0,0 -0.3623,-0.3944 -0.92887,-1.00295 -0.22789,-0.24482 -0.48859,-0.52352 -0.77187,-0.82585 -0.50871,-0.54186 -1.09079,-1.15746 -1.68733,-1.78047 -0.39476,-0.41275 -0.79587,-0.82797 -1.18604,-1.22696 -1.15182,-1.17757 -2.2098,-2.21192 -2.73615,-2.60421 -0.15734,-0.11747 -0.2674,-0.1778 -0.31715,-0.16721 l -1.95227,1.6771 -4.45029,3.8227 -0.46602,0.40005 0.46602,0.0547 4.45029,0.52423 2.26942,0.26776 2.73615,0.32208 1.18604,0.1397 1.68733,0.19897 z"
       style="fill:#603813;fill-opacity:1;fill-rule:nonzero;stroke:none;stroke-width:0.35277775"
       id="path474"
       inkscape:connector-curvature="0" />
    <path
       d="m 106.98747,160.87153 -3.15489,3.14749 -0.77647,0.7747 -0.38029,0.37853 0.38029,1.93675 0.66323,3.38278 0.11324,-0.091 3.15489,-2.53964 2.95522,-2.37772 2.52553,-2.032 -2.52553,-3.20675 -1.02341,-1.30034 z"
       style="fill:#603813;fill-opacity:1;fill-rule:nonzero;stroke:none;stroke-width:0.35277775"
       id="path478"
       inkscape:connector-curvature="0" />
    <path
       d="m 126.63069,153.31126 -0.77187,0.89782 -1.68733,1.96109 -1.18604,1.37936 -1.38995,1.61572 1.38995,1.11654 1.18604,0.95286 0.1217,0.0974 1.56563,-0.77929 0.77187,-0.38417 1.34127,-0.66781 3.28471,-1.63442 3.04412,-1.51518 -3.04412,-5.85188 -0.83255,-1.59879 -2.45216,2.85115 z"
       style="fill:#603813;fill-opacity:1;fill-rule:nonzero;stroke:none;stroke-width:0.35277775"
       id="path482"
       inkscape:connector-curvature="0" />
    <path
       d="m 127.97206,169.71476 -1.34126,0.39828 -0.11712,0.0353 0.11712,0.13476 1.34126,1.54376 1.13136,1.3021 -0.68897,3.3655 2.84233,-0.71967 8.06026,-2.04011 c 0,0 -1.60655,-6.58071 -1.64147,-6.74546 -0.0194,-0.0907 -3.38808,0.87242 -6.41879,1.75824 -1.23402,0.36054 -2.41159,0.70838 -3.28472,0.96732"
       style="fill:#603813;fill-opacity:1;fill-rule:nonzero;stroke:none;stroke-width:0.35277775"
       id="path486"
       inkscape:connector-curvature="0" />
    <path
       d="m 131.25677,160.89806 -3.04482,1.42593 0.80575,3.53519 2.23907,-0.61631 6.01169,-1.65347 -1.69651,-4.61504 0.21202,-0.19755 z"
       style="fill:#603813;fill-opacity:1;fill-rule:nonzero;stroke:none;stroke-width:0.35277775"
       id="path490"
       inkscape:connector-curvature="0" />
    <path
       d="m 120.24937,165.91964 2.73579,3.16266 0.38629,0.44591 0.8001,-0.45544 1.68699,-0.96026 0.77223,-0.43956 0.11676,-0.0667 -0.11676,-0.14111 -0.77223,-0.92993 -1.68699,-2.032 -1.18639,-1.42875 -2.73579,-3.29565 -0.34008,-0.41028 -1.92969,1.38924 -1.3529,0.97437 1.3529,1.56352 z"
       style="fill:#603813;fill-opacity:1;fill-rule:nonzero;stroke:none;stroke-width:0.35277775"
       id="path494"
       inkscape:connector-curvature="0" />
    <path
       d="m 113.52952,162.1197 0.29739,0.54539 2.23732,-7.15045 -2.53471,-0.23142 -3.58669,-0.32703 -0.33514,-0.0303 0.33514,0.6156 z"
       style="fill:#603813;fill-opacity:1;fill-rule:nonzero;stroke:none;stroke-width:0.35277775"
       id="path498"
       inkscape:connector-curvature="0" />
    <path
       d="m 113.52952,242.22127 1.62525,2.37173 2.82504,-2.39925 2.26942,-1.92687 2.73615,-2.32233 1.18603,-1.00859 0.11536,-0.0967 -0.11536,-0.58914 -1.18603,-6.08013 -0.56586,-2.89912 -2.17029,-0.19509 -2.26942,-0.20355 -4.45029,-0.40005 -3.48333,-0.31186 2.20945,7.32543 -2.31281,2.6543 -0.32456,0.37254 0.32456,0.47307 z"
       style="fill:#603813;fill-opacity:1;fill-rule:nonzero;stroke:none;stroke-width:0.35277775"
       id="path502"
       inkscape:connector-curvature="0" />
    <path
       d="m 110.48664,201.40792 3.0427,0.68368 4.4503,1.00119 2.26977,0.51082 2.73579,0.61454 0.41557,0.0938 0.41134,-6.26745 -0.82691,-0.1457 -2.73579,-0.48189 -2.26977,-0.40005 -4.4503,-0.78458 -3.58669,-0.63253 -0.73272,-0.12912 0.73272,3.40925 z"
       style="fill:#603813;fill-opacity:1;fill-rule:nonzero;stroke:none;stroke-width:0.35277775"
       id="path506"
       inkscape:connector-curvature="0" />
    <path
       d="m 109.94283,187.53793 -2.95522,2.50649 -2.28812,1.94134 1.70463,3.20075 0.58349,-0.34502 2.95522,-1.74766 3.58669,-2.12019 0.2406,-0.14217 -0.2406,-0.33867 -2.60703,-3.66924 0.15346,-0.24659 z"
       style="fill:#603813;fill-opacity:1;fill-rule:nonzero;stroke:none;stroke-width:0.35277775"
       id="path510"
       inkscape:connector-curvature="0" />
    <path
       d="m 103.83244,204.51505 -0.77647,0.007 -2.84515,0.0272 1.26506,5.78696 1.58009,0.0646 0.77647,0.031 3.15489,0.12806 2.95557,0.1203 3.58669,0.1457 0.6664,0.0275 0.39687,-6.44137 -1.06327,0.01 -3.58669,0.0346 -2.95557,0.0275 z"
       style="fill:#603813;fill-opacity:1;fill-rule:nonzero;stroke:none;stroke-width:0.35277775"
       id="path514"
       inkscape:connector-curvature="0" />
    <path
       d="m 127.97206,179.96665 -1.34126,0.33303 -0.77222,0.1912 -0.12665,0.0314 0.0938,2.07857 0.0328,-0.003 0.77223,-0.079 1.34126,-0.13794 3.28471,-0.3369 9.28829,-0.95321 -0.508,-4.11938 -8.78029,2.17946 z"
       style="fill:#603813;fill-opacity:1;fill-rule:nonzero;stroke:none;stroke-width:0.35277775"
       id="path518"
       inkscape:connector-curvature="0" />
    <path
       d="m 109.94283,224.406 3.58669,1.25201 2.65853,0.92745 1.24072,-3.23497 -3.89925,-1.81575 -3.58669,-1.67005 -1.27176,-0.59267 -1.68346,3.55212 -0.22366,0.47202 0.22366,0.0787 z"
       style="fill:#603813;fill-opacity:1;fill-rule:nonzero;stroke:none;stroke-width:0.35277775"
       id="path522"
       inkscape:connector-curvature="0" />
    <path
       d="m 99.172454,233.99404 3.883736,0.19614 0.77611,0.0399 3.15524,0.15981 0.83855,0.042 2.11667,-3.65442 0.32491,-0.56021 -0.32491,-0.90664 -1.27353,-3.55953 -1.68169,-0.11889 -3.15524,-0.22366 -0.77611,-0.0543 -3.25685,-0.23071 z"
       style="fill:#603813;fill-opacity:1;fill-rule:nonzero;stroke:none;stroke-width:0.35277775"
       id="path526"
       inkscape:connector-curvature="0" />
    <path
       d="m 118.28412,222.37474 1.88348,-9.45621 -2.18793,-0.12947 -4.45029,-0.26246 -1.66158,-0.0984 -1.92511,4.50673 -0.31256,0.73166 0.31256,0.17004 3.58669,1.95157 4.45029,2.42041 z"
       style="fill:#603813;fill-opacity:1;fill-rule:nonzero;stroke:none;stroke-width:0.35277775"
       id="path530"
       inkscape:connector-curvature="0" />
    <path
       d="m 107.21173,212.48112 -0.22437,-0.0236 -3.15489,-0.32208 -0.77646,-0.0794 -0.16475,-0.0166 -2.06587,11.93235 2.23062,0.40146 0.77646,0.13935 2.48673,0.44838 0.66816,-9.35037 z"
       style="fill:#603813;fill-opacity:1;fill-rule:nonzero;stroke:none;stroke-width:0.35277775"
       id="path534"
       inkscape:connector-curvature="0" />
    <path
       d="m 119.24978,154.4919 0.99942,-0.0494 1.04104,-0.0512 1.6951,-1.8422 1.18604,-1.28976 1.68734,-1.83339 0.77187,-0.83925 1.34161,-1.45839 0.67416,-0.73272 -0.67416,-0.74436 -1.34161,-1.48025 -0.77187,-0.85161 -1.29011,-1.42346 -0.39723,0.93945 -1.18604,2.80987 -2.73614,6.47947 z"
       style="fill:#603813;fill-opacity:1;fill-rule:nonzero;stroke:none;stroke-width:0.35277775"
       id="path538"
       inkscape:connector-curvature="0" />
    <path
       d="m 103.02768,202.9854 0.0286,-0.0162 0.77611,-0.44485 3.15525,-1.80693 1.41746,-0.81139 -1.41746,-1.51941 -2.9651,-3.17782 -0.19015,0.0497 -0.77611,0.2032 -7.340248,1.92264 3.354564,5.15831 z"
       style="fill:#603813;fill-opacity:1;fill-rule:nonzero;stroke:none;stroke-width:0.35277775"
       id="path542"
       inkscape:connector-curvature="0" />
    <path
       d="m 127.97206,227.88862 -1.34126,0.061 -0.37217,0.0173 -0.40005,0.78634 -1.46827,2.89031 1.46827,3.03283 0.34607,0.71579 0.42615,0.0564 1.34126,0.17603 3.28472,0.43321 3.54047,0.46567 0.27305,-8.95491 -3.81352,0.17145 z"
       style="fill:#603813;fill-opacity:1;fill-rule:nonzero;stroke:none;stroke-width:0.35277775"
       id="path546"
       inkscape:connector-curvature="0" />
    <path
       d="m 127.97206,245.66738 -1.34126,-0.0783 -0.51858,-0.031 -0.25364,0.59478 -1.68699,3.94864 -0.29668,0.69604 0.29668,0.16121 1.68699,0.91793 0.77222,0.41875 1.34126,0.73025 3.28472,1.78788 1.27176,0.69215 1.88348,-9.45621 -3.15524,-0.18627 z"
       style="fill:#603813;fill-opacity:1;fill-rule:nonzero;stroke:none;stroke-width:0.35277775"
       id="path550"
       inkscape:connector-curvature="0" />
    <path
       d="m 131.25677,238.94912 c -1.19591,-0.13865 -2.45427,-0.27164 -3.28471,-0.35737 -0.57679,-0.0596 -0.94862,-0.0956 -0.94862,-0.0956 l -0.39264,0.29175 -0.77222,0.57467 -1.68699,1.25519 -1.18639,0.88335 -2.73579,2.03765 -2.26977,1.68945 -4.44994,3.31329 -0.17674,0.13123 -3.40995,1.46191 -2.95558,1.26647 -3.15489,1.35326 -0.77646,0.33267 -4.575178,1.9618 3.696058,4.51767 0.87912,-0.64488 0.77646,-0.57044 3.15489,-2.31563 2.95558,-2.17065 3.58669,-2.63242 2.14171,-1.57128 2.30823,2.23803 2.26977,2.20062 2.73579,2.65254 1.18639,1.15111 1.68699,1.63478 0.77222,0.74894 1.34126,1.30105 0.1009,0.097 3.01519,-4.15572 -3.11609,-2.0193 -1.34126,-0.8696 -0.77222,-0.49988 -1.68699,-1.09326 -1.18639,-0.76871 -2.73579,-1.77341 -1.93358,-1.25306 1.93358,-0.59585 1.36172,-0.42015 1.37407,-1.99496 1.18639,-1.72227 1.68699,-2.44827 0.1016,-0.14782 0.67062,0.0924 1.34126,0.18803 3.28471,0.4572 3.55177,0.49424 -0.24271,-3.69428 c -0.0215,-0.10302 -1.60126,-0.31292 -3.30906,-0.51153"
       style="fill:#603813;fill-opacity:1;fill-rule:nonzero;stroke:none;stroke-width:0.35277775"
       id="path554"
       inkscape:connector-curvature="0" />
    <path
       d="m 115.21763,257.24325 2.76225,-0.19437 1.33844,-0.0949 -1.33844,-1.47073 -2.41476,-2.65254 c 0,0 -1.03329,0.95038 -2.03553,1.85561 -0.92498,0.83644 -1.82245,1.63477 -1.85526,1.61361 l 1.85526,0.49424 z"
       style="fill:#603813;fill-opacity:1;fill-rule:nonzero;stroke:none;stroke-width:0.35277775"
       id="path558"
       inkscape:connector-curvature="0" />
    <path
       d="m 127.97206,198.56605 -0.73201,-0.0593 -0.60925,0.88688 -0.77222,1.12254 -0.30904,0.4505 0.30904,0.32844 0.77222,0.82197 1.34126,1.4291 1.9551,2.08209 1.32962,-0.1023 6.35564,-0.48895 c 0.0642,-0.24624 1.49366,-5.56648 1.49366,-5.56648 l -7.8493,-0.63712 z"
       style="fill:#603813;fill-opacity:1;fill-rule:nonzero;stroke:none;stroke-width:0.35277775"
       id="path562"
       inkscape:connector-curvature="0" />
    <path
       d="m 103.83244,144.45636 3.15489,4.87998 2.34632,3.62831 0.60925,0.042 3.58669,0.2473 2.76366,0.19085 1.68663,-4.6362 2.26942,-6.23888 0.99942,-2.74672 c -0.32208,-0.25541 -0.65617,-0.49142 -0.99942,-0.70944 -0.7172,-0.45508 -1.47708,-0.82938 -2.26942,-1.13065 -1.40299,-0.5327 -2.90618,-0.83785 -4.45029,-0.95638 -1.18075,-0.09 -2.38513,-0.0713 -3.58669,0.036 -0.99236,0.0882 -1.98226,0.23742 -2.95557,0.43709 -1.07985,0.22155 -2.13819,0.50483 -3.15489,0.83467 -0.26176,0.085 -0.52106,0.17287 -0.77647,0.26353 -0.83255,0.29527 -1.63195,0.62089 -2.38548,0.96837 l 2.38548,3.68865 z"
       style="fill:#603813;fill-opacity:1;fill-rule:nonzero;stroke:none;stroke-width:0.35277775"
       id="path566"
       inkscape:connector-curvature="0" />
    <path
       d="m 129.758,185.72582 1.49895,3.423 0.32209,0.7359 8.26558,1.03328 0.41064,-6.26745 -8.99831,0.92181 z"
       style="fill:#603813;fill-opacity:1;fill-rule:nonzero;stroke:none;stroke-width:0.35277775"
       id="path570"
       inkscape:connector-curvature="0" />
    <path
       d="m 131.25677,215.74915 -3.28471,0.81562 -1.34126,0.33267 -0.77222,0.19191 -1.68699,0.4184 -1.18639,0.29492 -2.01083,0.49918 0.0942,2.07892 1.91664,-0.1965 1.18639,-0.12206 1.68698,-0.17286 0.77223,-0.079 1.34126,-0.13794 3.28471,-0.3369 4.53038,-0.46496 -0.508,-4.11974 z"
       style="fill:#603813;fill-opacity:1;fill-rule:nonzero;stroke:none;stroke-width:0.35277775"
       id="path574"
       inkscape:connector-curvature="0" />
    <path
       d="m 109.94283,257.43344 c -0.46426,0.47942 -1.27353,1.26647 -1.27353,1.26647 l 1.27353,0.47449 3.58669,1.33561 2.1456,0.79834 2.30469,-0.47131 2.26942,-0.46496 1.99849,-0.40852 -1.38818,-2.10749 -0.61031,0.0695 -2.26942,0.25929 -3.01554,0.34361 -1.43475,-0.44379 -3.27378,-1.01248 c 0.0353,-0.008 -0.10442,0.1457 -0.31291,0.36125"
       style="fill:#603813;fill-opacity:1;fill-rule:nonzero;stroke:none;stroke-width:0.35277775"
       id="path578"
       inkscape:connector-curvature="0" />
    <path
       d="m 129.32355,191.88222 -1.35149,-1.89442 -1.34126,-1.88066 -0.77222,-1.08267 -1.68699,-2.36502 -0.83926,-1.17617 -0.34713,1.28094 -0.82691,3.05082 0.82691,0.82303 1.18639,1.17969 1.68699,1.67852 0.77222,0.76835 1.34126,1.33456 2.77354,2.75942 0.51118,0.0162 8.52805,0.26882 0.45614,-2.77883 -8.98419,-1.6316 z"
       style="fill:#603813;fill-opacity:1;fill-rule:nonzero;stroke:none;stroke-width:0.35277775"
       id="path582"
       inkscape:connector-curvature="0" />
    <path
       d="m 123.58475,260.73381 -0.59937,0.10689 -2.73615,0.48649 -2.26942,0.40499 -2.69769,0.48083 -1.7526,-0.64206 -3.58669,-1.31409 -2.54741,-0.93275 -0.40781,0.3295 -2.54106,2.05916 2.54106,1.06292 2.95522,1.23649 3.58669,1.50071 0.3803,0.1584 4.06999,-0.78599 2.26942,-0.43991 2.73615,-0.52917 1.18604,-0.2293 1.39382,-0.26917 -1.39382,-1.88807 z"
       style="fill:#603813;fill-opacity:1;fill-rule:nonzero;stroke:none;stroke-width:0.35277775"
       id="path586"
       inkscape:connector-curvature="0" />
    <path
       d="m 95.528575,167.17677 3.884436,0.78881 0.01799,-3.09668 -3.902427,-1.29399 -4.542014,-1.50531 c 0.08784,0.0572 0.461081,4.27743 0.461081,4.27743 z"
       style="fill:#603813;fill-opacity:1;fill-rule:nonzero;stroke:none;stroke-width:0.35277775"
       id="path590"
       inkscape:connector-curvature="0" />
    <path
       d="m 103.05608,178.5094 0.37923,0.006 -0.37923,-0.62089 -1.96991,-3.22298 1.96991,-2.42429 0.32385,-0.39934 -0.32385,-0.0734 -7.527575,-1.70709 c -2.515305,-0.5711 -4.679244,-1.06287 -4.749447,-1.08122 l 0.05891,9.3218 4.690533,0.0769 z"
       style="fill:#603813;fill-opacity:1;fill-rule:nonzero;stroke:none;stroke-width:0.35277775"
       id="path594"
       inkscape:connector-curvature="0" />
    <path
       d="m 103.05608,153.57517 0.77646,0.56304 1.07492,0.77858 2.07997,-0.001 h 0.17322 l -0.17322,-0.24514 -3.15489,-4.4644 -0.77646,-1.09891 -4.758975,-6.73311 -2.7686,4.6937 -0.435328,0.73802 0.435328,0.31573 z"
       style="fill:#603813;fill-opacity:1;fill-rule:nonzero;stroke:none;stroke-width:0.35277775"
       id="path598"
       inkscape:connector-curvature="0" />
    <path
       d="m 103.05608,162.60064 0.65652,0.19614 0.11994,-0.15733 1.97838,-2.59292 -1.97838,-1.62313 -0.77646,-0.63747 -7.527575,-6.17643 -1.40335,-1.15147 -2.499078,8.73337 3.902428,1.16416 z"
       style="fill:#603813;fill-opacity:1;fill-rule:nonzero;stroke:none;stroke-width:0.35277775"
       id="path602"
       inkscape:connector-curvature="0" />
    <path
       d="m 103.83244,241.61181 3.15489,0.25682 1.03716,0.0847 1.91841,4.03155 0.74048,1.55645 2.84621,-1.18533 0.33055,-0.13759 -0.33055,-0.46813 -3.58669,-5.08177 -2.95557,-4.18676 -0.10407,-0.14781 -3.05082,0.0653 -0.77647,0.0166 -5.335056,0.11571 0.160514,4.5974 5.174542,0.42016 z"
       style="fill:#603813;fill-opacity:1;fill-rule:nonzero;stroke:none;stroke-width:0.35277775"
       id="path606"
       inkscape:connector-curvature="0" />
    <path
       d="m 103.05608,251.29426 0.77646,-0.24342 3.15489,-0.98848 1.49613,-0.46779 -1.49613,-4.10315 -0.62582,-1.71768 -2.52907,-0.25364 -0.77646,-0.0783 -4.723344,-0.47484 c 0.05644,-0.012 0.149577,9.75995 0.149577,9.75995 z"
       style="fill:#603813;fill-opacity:1;fill-rule:nonzero;stroke:none;stroke-width:0.35277775"
       id="path610"
       inkscape:connector-curvature="0" />
    <path
       d="m 103.05608,191.43126 0.77646,-3.82411 0.0857,-0.42333 -0.0857,-0.002 -0.77646,-0.0148 -7.527575,-0.14746 -3.003903,-0.0582 1.913114,7.07495 1.090789,-0.21201 7.330725,-1.42558 z"
       style="fill:#603813;fill-opacity:1;fill-rule:nonzero;stroke:none;stroke-width:0.35277775"
       id="path614"
       inkscape:connector-curvature="0" />
    <path
       d="m 103.05608,184.37158 0.77646,-0.007 2.45675,-0.0208 0.46954,-3.07799 -2.92629,-0.15169 -0.77646,-0.0406 -7.527575,-0.39088 -4.230864,-0.21907 0.855134,4.00156 3.37573,-0.0289 z"
       style="fill:#603813;fill-opacity:1;fill-rule:nonzero;stroke:none;stroke-width:0.35277775"
       id="path618"
       inkscape:connector-curvature="0" />
  </g>
</svg>
